<svg xmlns="http://www.w3.org/2000/svg" viewBox="0 0 720 360"><defs><style>.cls-1{fill:#9af7ff;}.cls-2{fill:#002a4b;}.cls-3{fill:#eac632;}.cls-4{fill:#ff8a1c;}.cls-5{fill:#ff7400;}.cls-6{fill:#ff9611;}.cls-7{fill:#fff;}.cls-8{fill:#ffde35;}.cls-9{fill:#ffd62c;}.cls-10{fill:#f7ffe2;}.cls-11{fill:#ff5d61;}</style></defs><title>BacksideOfCard copy</title><g id="Layer_2" data-name="Layer 2"><g id="BG"><rect id="fon" class="cls-1" width="720" height="360"/></g><path class="cls-2" d="M278.41,58.07h2.92v2.84h-8.64V58.07h2.93V33.65h-3.1V30.81h5.89Z"/><path class="cls-2" d="M296,57a4,4,0,0,1-4,3.91h-1.89A3.9,3.9,0,0,1,286.28,57V52.27h2.79v4.51a1.34,1.34,0,0,0,1.34,1.29h1.46a1.33,1.33,0,0,0,1.33-1.29V47.32a3.88,3.88,0,0,1-2.79,1.16,4.15,4.15,0,0,1-4.13-3.91V34.72a3.92,3.92,0,0,1,3.91-3.91h1.89a4,4,0,0,1,4,3.91ZM293.2,34.94a1.33,1.33,0,0,0-1.33-1.29h-1.46a1.34,1.34,0,0,0-1.34,1.29v9.42a1.34,1.34,0,0,0,1.34,1.29c2.19,0,2.79-1.81,2.79-3.7Z"/><path class="cls-2" d="M319.73,60.91V51.37l.69-11-6.71,20.51H310V37.69h2.67V48.53L312,58.25l6.71-20.56h3.7V60.91Z"/><path class="cls-2" d="M329.58,37.69v9.46h3.18V41.69a4.06,4.06,0,0,1,4-4h3.1a4,4,0,0,1,4,4V56.91a4,4,0,0,1-4,4h-3.1a4.09,4.09,0,0,1-4-4V49.82h-3.18V60.91h-2.67V37.69Zm11.65,4a1.34,1.34,0,0,0-1.33-1.33h-3.1a1.34,1.34,0,0,0-1.33,1.33V56.91a1.34,1.34,0,0,0,1.33,1.34h3.1a1.34,1.34,0,0,0,1.33-1.34Z"/><path class="cls-2" d="M359.68,37.69V60.91H357V49.82h-5.89V60.91h-2.67V37.69h2.67v9.46H357V37.69Z"/><path class="cls-2" d="M367.12,49.65a4.62,4.62,0,0,1-3.36-4.52V41.69a4,4,0,0,1,4-4h6.84V60.91h-2.67V49.82h-2.06l-3.44,11.09h-2.88Zm4.81-2.5V40.4h-4.17a1.34,1.34,0,0,0-1.33,1.33v3.44a2,2,0,0,0,2,2Z"/><path class="cls-2" d="M394.46,58.07h2.93v2.84h-8.65V58.07h2.93V33.65h-3.1V30.81h5.89Z"/><path class="cls-2" d="M402.33,46.25a3.3,3.3,0,0,1,2.24-3.18,3,3,0,0,1-2-2.71V34.72a3.93,3.93,0,0,1,3.95-3.91h1.16a3.93,3.93,0,0,1,3.92,3.91v5.64a2.87,2.87,0,0,1-2,2.71,3.36,3.36,0,0,1,2.19,3.18V57a3.92,3.92,0,0,1-3.91,3.91h-1.59a3.93,3.93,0,0,1-4-3.91Zm2.84,10.53a1.3,1.3,0,0,0,1.33,1.29h1.16A1.29,1.29,0,0,0,409,56.78V45.9a1.3,1.3,0,0,0-1.29-1.33H406.5a1.34,1.34,0,0,0-1.33,1.33Zm.21-16.29a1.3,1.3,0,0,0,1.29,1.29h.78a1.27,1.27,0,0,0,1.29-1.29V34.94a1.29,1.29,0,0,0-1.29-1.29h-.73a1.34,1.34,0,0,0-1.34,1.29Z"/><path class="cls-2" d="M416.31,38.55h3.05V41.6h-3.05Zm0,19.31h3.05v3h-3.05Z"/><path class="cls-2" d="M433.2,57a3.89,3.89,0,0,1-3.91,3.91h-1.5A3.87,3.87,0,0,1,423.87,57V34.72a4,4,0,0,1,3.92-3.91h1.5a4,4,0,0,1,3.91,3.91Zm-2.83-17.89V34.94a1.33,1.33,0,0,0-1.29-1.29H428a1.32,1.32,0,0,0-1.29,1.29V45.82Zm-3.66,11.44v6.23A1.33,1.33,0,0,0,428,58.07h1.08a1.32,1.32,0,0,0,1.29-1.29v-13Z"/><path class="cls-2" d="M447.48,57a3.9,3.9,0,0,1-3.91,3.91h-1.51A3.87,3.87,0,0,1,438.15,57V34.72a4,4,0,0,1,3.91-3.91h1.51a4,4,0,0,1,3.91,3.91Zm-2.84-17.89V34.94a1.32,1.32,0,0,0-1.29-1.29h-1.07A1.32,1.32,0,0,0,441,34.94V45.82ZM441,50.55v6.23a1.32,1.32,0,0,0,1.29,1.29h1.07a1.32,1.32,0,0,0,1.29-1.29v-13Z"/><path class="cls-2" d="M259.1,97.59H258v14.92h-2.83V82.41H258V95h1.21a2.14,2.14,0,0,0,2.23-2.24v-6a4.32,4.32,0,0,1,4.26-4.34h.22v2.8h-.22a1.54,1.54,0,0,0-1.42,1.54V93a4.15,4.15,0,0,1-2.41,3.83l4,15.69H263Z"/><path class="cls-2" d="M280.09,89.29,276,119.18h-2.71l.94-6.67h-2.27l-3.44-23.22h2.7l3.06,20.55h.39l2.75-20.55Z"/><path class="cls-2" d="M283.74,119.18V89.29H286l.43,1,2.53-1a4,4,0,0,1,1.38-.25,3.81,3.81,0,0,1,3.91,3.78v16.08a3.71,3.71,0,0,1-4,3.79,3.75,3.75,0,0,1-1.34-.26l-2.53-1v7.66Zm6.06-9.25a1.65,1.65,0,0,0,.43.09,1.23,1.23,0,0,0,1.34-1.16V93.08a1.21,1.21,0,0,0-1.34-1.29,1.57,1.57,0,0,0-.43,0l-3.39,1.33v15.52Z"/><path class="cls-2" d="M310,89.29v23.22H307.3V101.42h-5.89v11.09h-2.66V89.29h2.66v9.46h5.89V89.29Z"/><path class="cls-2" d="M322.83,98.75V93.33A1.34,1.34,0,0,0,321.49,92h-2.58a1.26,1.26,0,0,0-.94.39,1.19,1.19,0,0,0-.39.94v2.24h-2.67V93.29a4,4,0,0,1,4-4h2.58a4.05,4.05,0,0,1,4,4v19.22H323.3l-.43-1-3.05,1a6.53,6.53,0,0,1-1.55.26,3.53,3.53,0,0,1-3.79-3.62v-6.36a4.05,4.05,0,0,1,4-4Zm0,2.67h-4.35a1.43,1.43,0,0,0-1.33,1.33v6a1.3,1.3,0,0,0,1.33,1.29,2.16,2.16,0,0,0,.48,0l3.87-1.34Z"/><path class="cls-2" d="M335.3,92v20.51h-2.67V92H329V89.29h10V92Z"/><path class="cls-2" d="M353.53,108.51a4,4,0,0,1-4,4h-3.1a4,4,0,0,1-4-4V93.33a4,4,0,0,1,4-4h3.1a4,4,0,0,1,4,4Zm-2.67-15.18A1.34,1.34,0,0,0,349.53,92h-3.1a1.34,1.34,0,0,0-1.33,1.33v15.18a1.34,1.34,0,0,0,1.33,1.33h3.1a1.34,1.34,0,0,0,1.33-1.33Z"/><path class="cls-2" d="M369.09,103.22v5.29a4,4,0,0,1-4,4h-7V89.29h7a4,4,0,0,1,4,4V97a3.38,3.38,0,0,1-2.28,3.13A3.28,3.28,0,0,1,369.09,103.22Zm-4.68-4.47a2,2,0,0,0,2-2v-3.4A1.34,1.34,0,0,0,365.09,92h-4.38v6.75Zm-3.7,2.67v8.42h4.38a1.34,1.34,0,0,0,1.34-1.33v-5.07a2,2,0,0,0-2-2Z"/><path class="cls-2" d="M381.05,95.57V93.33A1.34,1.34,0,0,0,379.71,92h-2.1a1.34,1.34,0,0,0-1.34,1.33v15.18a1.34,1.34,0,0,0,1.34,1.33h2.1a1.34,1.34,0,0,0,1.34-1.33v-3.65h2.66v3.65a4,4,0,0,1-4,4h-2.1a4,4,0,0,1-4-4V93.33a4,4,0,0,1,4-4h2.1a4,4,0,0,1,4,4v2.24Z"/><path class="cls-2" d="M390.89,98.75h2.2a1.82,1.82,0,0,0,1.76-1.85V93.55A4.23,4.23,0,0,1,399,89.29h.17V92H399a1.47,1.47,0,0,0-1.46,1.55V97a4.35,4.35,0,0,1-2.62,4l4.25,11.57h-2.84l-4.12-11.09h-1.34v11.09h-2.66V89.29h2.66Z"/><path class="cls-2" d="M413.94,108.51a4,4,0,0,1-4,4h-3.09a4,4,0,0,1-4-4V93.33a4,4,0,0,1,4-4h3.09a4,4,0,0,1,4,4Zm-2.67-15.18A1.34,1.34,0,0,0,409.94,92h-3.09a1.34,1.34,0,0,0-1.34,1.33v15.18a1.34,1.34,0,0,0,1.34,1.33h3.09a1.34,1.34,0,0,0,1.33-1.33Z"/><path class="cls-2" d="M426.88,92h-5.76v20.55h-2.66V89.29h8.42Z"/><path class="cls-2" d="M441.42,108.51a4,4,0,0,1-4,4h-3.1a4,4,0,0,1-4-4V93.33a4,4,0,0,1,4-4h3.1a4,4,0,0,1,4,4Zm-2.67-15.18A1.34,1.34,0,0,0,437.42,92h-3.1A1.34,1.34,0,0,0,433,93.33v15.18a1.34,1.34,0,0,0,1.33,1.33h3.1a1.34,1.34,0,0,0,1.33-1.33Z"/><path class="cls-2" d="M455.39,97.85a3.29,3.29,0,0,1,2.24-3.18,3,3,0,0,1-2-2.71V86.32a3.93,3.93,0,0,1,3.95-3.91h1.16a3.93,3.93,0,0,1,3.92,3.91V92a2.88,2.88,0,0,1-2,2.71,3.36,3.36,0,0,1,2.19,3.18V108.6a3.92,3.92,0,0,1-3.91,3.91h-1.59a3.94,3.94,0,0,1-4-3.91Zm2.84,10.53a1.3,1.3,0,0,0,1.33,1.29h1.16a1.29,1.29,0,0,0,1.29-1.29V97.5a1.3,1.3,0,0,0-1.29-1.33h-1.16a1.34,1.34,0,0,0-1.33,1.33Zm.21-16.29a1.3,1.3,0,0,0,1.29,1.29h.78a1.27,1.27,0,0,0,1.29-1.29V86.54a1.29,1.29,0,0,0-1.29-1.29h-.73a1.34,1.34,0,0,0-1.34,1.29Z"/><path class="cls-2" d="M34.93,155.47H32.31L28.78,134h2.88l3,18.62h.56L37.38,134h2.88l-3.48,30.1H33.9Z"/><path class="cls-2" d="M51.18,164.11V153.62h-.69l-4.6,10.49H43.06l4.77-10.88a4.26,4.26,0,0,1-2.62-4v-4a1.59,1.59,0,0,0-1.6-1.55H43.1v-2.71h.51a4.3,4.3,0,0,1,4.26,4.26v4a1.81,1.81,0,0,0,1.81,1.8h1.5V140.89h2.71V151H55.4a1.81,1.81,0,0,0,1.8-1.8v-4a4.3,4.3,0,0,1,4.26-4.26H62v2.71h-.56a1.58,1.58,0,0,0-1.59,1.55v4a4.41,4.41,0,0,1-2.58,4L62,164.11H59.18l-4.6-10.49h-.69v10.49Z"/><path class="cls-2" d="M75.39,164.11v-9.55l.69-11-6.71,20.51h-3.7V140.89h2.67v10.84l-.69,9.72,6.71-20.56h3.7v23.22Z"/><path class="cls-2" d="M93.79,140.89v23.22H91.13V153H85.24v11.09H82.57V140.89h2.67v9.46h5.89v-9.46Z"/><path class="cls-2" d="M101.15,161.06v3.05l-2.07,4.64h-1l1.12-4.64H98.09v-3.05Z"/><path class="cls-2" d="M122.13,147.17v-2.24a1.34,1.34,0,0,0-1.33-1.33h-2.11a1.34,1.34,0,0,0-1.33,1.33v15.18a1.34,1.34,0,0,0,1.33,1.34h2.11a1.34,1.34,0,0,0,1.33-1.34v-3.65h2.67v3.65a4,4,0,0,1-4,4h-2.11a4,4,0,0,1-4-4V144.93a4,4,0,0,1,4-4h2.11a4,4,0,0,1,4,4v2.24Z"/><path class="cls-2" d="M132,153v7.09a1.34,1.34,0,0,0,1.33,1.34h2.62a1.35,1.35,0,0,0,1.34-1.34v-3.65h2.66v3.61a4.06,4.06,0,0,1-4,4h-2.62a4.09,4.09,0,0,1-4-4V144.89a4,4,0,0,1,4-4h2.62a4,4,0,0,1,4,4V153Zm0-2.67h5.29v-5.42a1.34,1.34,0,0,0-1.34-1.33h-2.62a1.34,1.34,0,0,0-1.33,1.33Z"/><path class="cls-2" d="M144.45,170.78V140.89h2.23l.43,1,2.54-.95a4,4,0,0,1,1.38-.25,3.82,3.82,0,0,1,3.91,3.78v16.08a3.89,3.89,0,0,1-5.29,3.53l-2.54-.95v7.66Zm6.06-9.25a1.65,1.65,0,0,0,.43.09,1.22,1.22,0,0,0,1.33-1.16V144.68a1.21,1.21,0,0,0-1.33-1.3,1.27,1.27,0,0,0-.43.05l-3.4,1.33v15.52Z"/><path class="cls-2" d="M169.17,164.11v-9.55l.69-11-6.71,20.51h-3.7V140.89h2.67v10.84l-.69,9.72,6.71-20.56h3.7v23.22Z"/><path class="cls-2" d="M184.69,150.35v-5.42a1.34,1.34,0,0,0-1.33-1.33h-2.58a1.23,1.23,0,0,0-.94.39,1.19,1.19,0,0,0-.39.94v2.24h-2.67v-2.28a4,4,0,0,1,4-4h2.58a4,4,0,0,1,4,4v19.22h-2.23l-.43-1-3.06,1a6.37,6.37,0,0,1-1.54.26,3.53,3.53,0,0,1-3.79-3.62v-6.36a4,4,0,0,1,4-4Zm0,2.67h-4.34a1.43,1.43,0,0,0-1.33,1.33v6a1.3,1.3,0,0,0,1.33,1.29,2,2,0,0,0,.47,0l3.87-1.34Z"/><path class="cls-2" d="M196,152.16c0,6.23-.26,12.17-5.12,12.17v-2.71c2.28,0,2.41-4.35,2.41-9.16v-7.57a4,4,0,0,1,4-4h6.11v23.22h-2.67V143.6h-3.44a1.34,1.34,0,0,0-1.33,1.33Z"/><path class="cls-2" d="M207.91,164.11V140.89h2.67v6.8h3.74a4.24,4.24,0,0,1,4.26,4.25v7.91a4.26,4.26,0,0,1-4.26,4.26Zm8-12.64a1.11,1.11,0,0,0-1.12-1.12h-4.17v11.1h4.17a1.11,1.11,0,0,0,1.12-1.12Z"/><path class="cls-2" d="M231.48,164.11v-8.43h-4.13a4.24,4.24,0,0,1-4.26-4.25V140.89h2.67v11a1.14,1.14,0,0,0,1.12,1.12h4.6V140.89h2.71v23.22Z"/><path class="cls-2" d="M248.42,164.11v-9.55l.69-11-6.71,20.51h-3.7V140.89h2.67v10.84l-.69,9.72,6.71-20.56h3.7v23.22Z"/><path class="cls-2" d="M258.27,150.35h2.19a1.82,1.82,0,0,0,1.76-1.85v-3.35a4.23,4.23,0,0,1,4.17-4.26h.18v2.71h-.18a1.47,1.47,0,0,0-1.46,1.55v3.44a4.35,4.35,0,0,1-2.62,3.95l4.26,11.57h-2.84L259.6,153h-1.33v11.09H255.6V140.89h2.67Z"/><path class="cls-2" d="M279.94,164.11v-9.55l.69-11-6.71,20.51h-3.7V140.89h2.67v10.84l-.69,9.72,6.71-20.56h3.69v23.22Z"/><path class="cls-2" d="M306.08,164.11v-9.55l.69-11-6.71,20.51h-3.7V140.89H299v10.84l-.69,9.72,6.71-20.56h3.7v23.22Z"/><path class="cls-2" d="M333.6,160.11a4,4,0,0,1-4,4h-3.1a4,4,0,0,1-4-4V144.93a4,4,0,0,1,4-4h3.1a4,4,0,0,1,4,4Zm-2.67-15.18a1.34,1.34,0,0,0-1.33-1.33h-3.1a1.34,1.34,0,0,0-1.33,1.33v15.18a1.34,1.34,0,0,0,1.33,1.34h3.1a1.34,1.34,0,0,0,1.33-1.34Z"/><path class="cls-2" d="M340.78,142.61l3.05-1.07a4.48,4.48,0,0,1,1.29-.22,4,4,0,0,1,4.05,4v14.79a4.15,4.15,0,0,1-4.05,4h-3a4.08,4.08,0,0,1-4-4V142.18c0-4.08,2.76-5,5.47-5.89,1.5-.47,2.88-.95,2.88-2.28h2.71c0,3.14-2.2,3.91-4.65,4.78-1.81.64-3.74.9-3.74,3.31Zm0,2.8v14.7a1.39,1.39,0,0,0,1.25,1.34h3.18a1.31,1.31,0,0,0,1.29-1.34V145.32a1.35,1.35,0,0,0-1.33-1.38,2.07,2.07,0,0,0-.43.09Z"/><path class="cls-2" d="M364.9,140.89v23.22h-2.66V153h-5.89v11.09h-2.67V140.89h2.67v9.46h5.89v-9.46Z"/><path class="cls-2" d="M379.13,164.11v-9.55l.69-11-6.7,20.51h-3.7V140.89h2.66v10.84l-.68,9.72,6.7-20.56h3.7v23.22Z"/><path class="cls-2" d="M400.16,164.11v-8.9l.86-10.75-4.77,19.65h-3.31l-4.82-19.65.9,10.92v8.73h-2.7V140.89h3.61l4.64,19.22,4.69-19.22h3.61v23.22Z"/><path class="cls-2" d="M415.73,150.35v-5.42a1.34,1.34,0,0,0-1.34-1.33h-2.58a1.26,1.26,0,0,0-.94.39,1.19,1.19,0,0,0-.39.94v2.24h-2.67v-2.28a4,4,0,0,1,4.05-4h2.58a4.05,4.05,0,0,1,4,4v19.22H416.2l-.43-1-3,1a6.53,6.53,0,0,1-1.55.26,3.53,3.53,0,0,1-3.79-3.62v-6.36a4.05,4.05,0,0,1,4-4Zm0,2.67h-4.35a1.44,1.44,0,0,0-1.33,1.33v6a1.31,1.31,0,0,0,1.33,1.29,2.16,2.16,0,0,0,.48,0l3.87-1.34Z"/><path class="cls-2" d="M425.66,140.89v20.56h5.59V140.89H434v20.56h5.59V140.89h2.71v23.22H423V140.89Z"/><path class="cls-2" d="M449.44,150.35h2.19a1.82,1.82,0,0,0,1.76-1.85v-3.35a4.23,4.23,0,0,1,4.17-4.26h.18v2.71h-.18a1.47,1.47,0,0,0-1.46,1.55v3.44a4.35,4.35,0,0,1-2.62,3.95l4.26,11.57H454.9L450.77,153h-1.33v11.09h-2.67V140.89h2.67Z"/><path class="cls-2" d="M471.11,164.11v-9.55l.69-11-6.71,20.51h-3.7V140.89h2.67v10.84l-.69,9.72,6.71-20.56h3.69v23.22Z"/><path class="cls-2" d="M481.13,161.06v3.05l-2.07,4.64h-1l1.12-4.64h-1.12v-3.05Z"/><path class="cls-2" d="M503,164.11V143.6h-5.63v20.51h-2.67V140.89h11v23.22Z"/><path class="cls-2" d="M510.15,170.78V140.89h2.24l.43,1,2.53-.95a4,4,0,0,1,1.38-.25,3.81,3.81,0,0,1,3.91,3.78v16.08a3.71,3.71,0,0,1-3.95,3.79,3.75,3.75,0,0,1-1.34-.26l-2.53-.95v7.66Zm6.06-9.25a1.74,1.74,0,0,0,.43.09,1.23,1.23,0,0,0,1.34-1.16V144.68a1.22,1.22,0,0,0-1.34-1.3,1.3,1.3,0,0,0-.43.05l-3.39,1.33v15.52Z"/><path class="cls-2" d="M534.88,164.11v-9.55l.68-11-6.7,20.51h-3.7V140.89h2.66v10.84l-.68,9.72,6.7-20.56h3.7v23.22Z"/><path class="cls-2" d="M547.52,150.35h.56l3.18-9.46h2.88l-3.91,10.79,4.43,12.43h-2.84L548.12,153h-.65l-3.65,11.09H541l4.39-12.43-3.91-10.79h2.88Z"/><path class="cls-2" d="M569.19,160.11a4,4,0,0,1-4,4h-3.1a4,4,0,0,1-4-4V144.93a4,4,0,0,1,4-4h3.1a4,4,0,0,1,4,4Zm-2.67-15.18a1.34,1.34,0,0,0-1.33-1.33h-3.1a1.34,1.34,0,0,0-1.33,1.33v15.18a1.34,1.34,0,0,0,1.33,1.34h3.1a1.34,1.34,0,0,0,1.33-1.34Z"/><path class="cls-2" d="M572.41,168.45v-7h1.81c1.76-4.22,1.76-8.73,1.76-13.33v-7.23h10.67v20.56h2v7H586v-4.34H575.12v4.34Zm11.53-7V143.6h-5.25v4.52c0,4.64,0,9-1.55,13.33Z"/><path class="cls-2" d="M601.83,164.11v-9.55l.68-11-6.7,20.51h-3.7V140.89h2.66v10.84l-.68,9.72,6.7-20.56h3.7v23.22Z"/><path class="cls-2" d="M629.3,154.82v5.29a4,4,0,0,1-4,4h-7V140.89h7a4,4,0,0,1,4,4v3.61a3.38,3.38,0,0,1-2.28,3.14A3.28,3.28,0,0,1,629.3,154.82Zm-4.68-4.47a2,2,0,0,0,2-2v-3.4a1.34,1.34,0,0,0-1.34-1.33h-4.38v6.75Zm-3.7,2.67v8.43h4.38a1.35,1.35,0,0,0,1.34-1.34V155a2,2,0,0,0-2-2Z"/><path class="cls-2" d="M651.45,164.11v-8.43h-4.13a4.24,4.24,0,0,1-4.26-4.25V140.89h2.67v11a1.14,1.14,0,0,0,1.11,1.12h4.61V140.89h2.7v23.22Z"/><path class="cls-2" d="M661.33,153v7.09a1.35,1.35,0,0,0,1.34,1.34h2.62a1.34,1.34,0,0,0,1.33-1.34v-3.65h2.67v3.61a4.06,4.06,0,0,1-4,4h-2.62a4.08,4.08,0,0,1-4-4V144.89a4,4,0,0,1,4-4h2.62a4,4,0,0,1,4,4V153Zm1.6-19v3.05H660.3V134Zm-1.6,16.34h5.29v-5.42a1.34,1.34,0,0,0-1.33-1.33h-2.62a1.34,1.34,0,0,0-1.34,1.33ZM667.91,134v3.05h-2.58V134Z"/><path class="cls-2" d="M687.65,164.11v-8.9l.86-10.75-4.77,19.65h-3.31l-4.82-19.65.9,10.92v8.73H673.8V140.89h3.62l4.64,19.22,4.69-19.22h3.61v23.22Z"/><path class="cls-2" d="M27.57,202h.56l3.19-9.46H34.2l-3.92,10.79,4.43,12.43H31.87l-3.69-11.09h-.65l-3.65,11.09H21l4.38-12.43-3.91-10.79h2.88Z"/><path class="cls-2" d="M49.25,211.71a4,4,0,0,1-4,4h-3.1a4,4,0,0,1-4-4V196.53a4,4,0,0,1,4-4h3.1a4,4,0,0,1,4,4Zm-2.67-15.18a1.34,1.34,0,0,0-1.33-1.33h-3.1a1.34,1.34,0,0,0-1.33,1.33v15.18A1.34,1.34,0,0,0,42.15,213h3.1a1.34,1.34,0,0,0,1.33-1.33Z"/><path class="cls-2" d="M62.15,215.71v-8.43H58A4.24,4.24,0,0,1,53.76,203V192.49h2.67v11a1.14,1.14,0,0,0,1.11,1.12h4.61V192.49h2.7v23.22Z"/><path class="cls-2" d="M72,204.62v7.09A1.33,1.33,0,0,0,73.37,213H76a1.33,1.33,0,0,0,1.33-1.33v-3.65H80v3.61a4.06,4.06,0,0,1-4,4H73.37a4.08,4.08,0,0,1-4-4V196.49a4,4,0,0,1,4-4H76a4,4,0,0,1,4,4v8.13ZM72,202h5.28v-5.42A1.34,1.34,0,0,0,76,195.2H73.37A1.34,1.34,0,0,0,72,196.53Z"/><path class="cls-2" d="M87.21,192.49V213H92.8V192.49h2.71V213h5.59V192.49h2.71v23.22H84.5V192.49Z"/><path class="cls-2" d="M108.33,215.71V192.49H111v6.8h3.74a4.24,4.24,0,0,1,4.26,4.25v7.91a4.26,4.26,0,0,1-4.26,4.26Zm8-12.64a1.11,1.11,0,0,0-1.12-1.12H111V213h4.17a1.1,1.1,0,0,0,1.12-1.11Z"/><path class="cls-2" d="M126.34,212.66v3.05l-2.06,4.64h-1l1.12-4.64h-1.12v-3.05Z"/><path class="cls-2" d="M145.13,195.2v20.51h-2.66V195.2h-3.66v-2.71h10v2.71Z"/><path class="cls-2" d="M152.27,215.71V192.49H155v6.8h3.61a4.27,4.27,0,0,1,4.26,4.25v7.91a4.3,4.3,0,0,1-4.26,4.26Zm7.87-12.64A1.14,1.14,0,0,0,159,202h-4V213h4a1.14,1.14,0,0,0,1.12-1.11Zm5.42,12.64V192.49h2.71v23.22Z"/><path class="cls-2" d="M193.08,206.42v5.29a4,4,0,0,1-4,4H182V192.49h7.05a4,4,0,0,1,4,4v3.61a3.38,3.38,0,0,1-2.28,3.14A3.29,3.29,0,0,1,193.08,206.42ZM188.39,202a2,2,0,0,0,2-2v-3.4a1.34,1.34,0,0,0-1.33-1.33h-4.39V202Zm-3.7,2.67V213h4.39a1.34,1.34,0,0,0,1.33-1.33v-5.07a2,2,0,0,0-2-2Z"/><path class="cls-2" d="M205,198.77v-2.24a1.34,1.34,0,0,0-1.33-1.33h-2.11a1.34,1.34,0,0,0-1.33,1.33v15.18a1.34,1.34,0,0,0,1.33,1.33h2.11a1.34,1.34,0,0,0,1.33-1.33v-3.65h2.67v3.65a4,4,0,0,1-4,4h-2.11a4,4,0,0,1-4-4V196.53a4,4,0,0,1,4-4h2.11a4,4,0,0,1,4,4v2.24Z"/><path class="cls-2" d="M214.88,204.62v7.09a1.33,1.33,0,0,0,1.33,1.33h2.62a1.34,1.34,0,0,0,1.34-1.33v-3.65h2.66v3.61a4.06,4.06,0,0,1-4,4h-2.62a4.09,4.09,0,0,1-4-4V196.49a4,4,0,0,1,4-4h2.62a4,4,0,0,1,4,4v8.13Zm0-2.67h5.29v-5.42a1.34,1.34,0,0,0-1.34-1.33h-2.62a1.34,1.34,0,0,0-1.33,1.33Z"/><path class="cls-2" d="M235.78,195.16H230v20.55h-2.66V192.49h8.43Z"/><path class="cls-2" d="M236.21,220.05v-7H238c1.76-4.21,1.76-8.72,1.76-13.33v-7.22h10.67V213h2v7h-2.67v-4.34H238.91v4.34Zm11.52-7V195.2h-5.25v4.51c0,4.65,0,9-1.54,13.33Z"/><path class="cls-2" d="M264.24,202v-5.42a1.34,1.34,0,0,0-1.33-1.33h-2.58a1.27,1.27,0,0,0-.95.39,1.18,1.18,0,0,0-.38.94v2.24h-2.67v-2.28a4,4,0,0,1,4-4H263a4,4,0,0,1,4,4v19.22h-2.24l-.43-1-3,1a6.36,6.36,0,0,1-1.55.26,3.52,3.52,0,0,1-3.78-3.62V206a4,4,0,0,1,4-4Zm0,2.67H259.9a1.42,1.42,0,0,0-1.33,1.33v6a1.3,1.3,0,0,0,1.33,1.29,2,2,0,0,0,.47,0l3.87-1.34Z"/><path class="cls-2" d="M289,215.71V195.2h-5.63v20.51h-2.67V192.49h11v23.22Z"/><path class="cls-2" d="M296.19,222.38V192.49h2.23l.43,1,2.54-.95a4,4,0,0,1,1.38-.25,3.82,3.82,0,0,1,3.91,3.78v16.08a3.89,3.89,0,0,1-5.29,3.53l-2.54-.95v7.66Zm6.06-9.25a1.65,1.65,0,0,0,.43.09,1.22,1.22,0,0,0,1.33-1.17V196.28a1.21,1.21,0,0,0-1.33-1.3,1.27,1.27,0,0,0-.43.05l-3.4,1.33v15.52Z"/><path class="cls-2" d="M313.86,204.62v7.09a1.34,1.34,0,0,0,1.33,1.33h2.63a1.34,1.34,0,0,0,1.33-1.33v-3.65h2.67v3.61a4.06,4.06,0,0,1-4,4h-2.63a4.08,4.08,0,0,1-4-4V196.49a4,4,0,0,1,4-4h2.63a4,4,0,0,1,4,4v8.13Zm0-2.67h5.29v-5.42a1.34,1.34,0,0,0-1.33-1.33h-2.63a1.34,1.34,0,0,0-1.33,1.33Z"/><path class="cls-2" d="M329,202h2.19A1.82,1.82,0,0,0,333,200.1v-3.35a4.23,4.23,0,0,1,4.18-4.26h.17v2.71h-.17a1.47,1.47,0,0,0-1.47,1.55v3.44a4.35,4.35,0,0,1-2.62,3.95l4.26,11.57h-2.84l-4.13-11.09H329v11.09h-2.67V192.49H329Z"/><path class="cls-2" d="M341,222.38V192.49h2.24l.43,1,2.53-.95a4,4,0,0,1,1.38-.25,3.81,3.81,0,0,1,3.91,3.78v16.08a3.71,3.71,0,0,1-3.95,3.79,3.75,3.75,0,0,1-1.34-.26l-2.53-.95v7.66Zm6.06-9.25a1.74,1.74,0,0,0,.43.09,1.23,1.23,0,0,0,1.34-1.17V196.28a1.22,1.22,0,0,0-1.34-1.3,1.3,1.3,0,0,0-.43.05l-3.39,1.33v15.52Z"/><path class="cls-2" d="M364.3,202v-5.42A1.34,1.34,0,0,0,363,195.2h-2.58a1.27,1.27,0,0,0-.95.39,1.19,1.19,0,0,0-.39.94v2.24h-2.66v-2.28a4,4,0,0,1,4-4H363a4,4,0,0,1,4,4v19.22h-2.24l-.43-1-3,1a6.45,6.45,0,0,1-1.55.26,3.52,3.52,0,0,1-3.78-3.62V206a4,4,0,0,1,4-4Zm0,2.67H360a1.43,1.43,0,0,0-1.34,1.33v6a1.31,1.31,0,0,0,1.34,1.29,2,2,0,0,0,.47,0l3.87-1.34Z"/><path class="cls-2" d="M379,198.77v-2.24a1.34,1.34,0,0,0-1.33-1.33h-2.11a1.34,1.34,0,0,0-1.33,1.33v15.18a1.34,1.34,0,0,0,1.33,1.33h2.11a1.34,1.34,0,0,0,1.33-1.33v-3.65h2.67v3.65a4,4,0,0,1-4,4h-2.11a4,4,0,0,1-4-4V196.53a4,4,0,0,1,4-4h2.11a4,4,0,0,1,4,4v2.24Z"/><path class="cls-2" d="M397.37,192.49v23.22H394.7V204.62h-5.89v11.09h-2.67V192.49h2.67V202h5.89v-9.46Z"/><path class="cls-2" d="M410.22,202v-5.42a1.34,1.34,0,0,0-1.33-1.33h-2.58a1.27,1.27,0,0,0-.95.39,1.18,1.18,0,0,0-.38.94v2.24h-2.67v-2.28a4,4,0,0,1,4-4h2.58a4,4,0,0,1,4,4v19.22H410.7l-.44-1-3.05,1a6.36,6.36,0,0,1-1.55.26,3.52,3.52,0,0,1-3.78-3.62V206a4,4,0,0,1,4-4Zm0,2.67h-4.34a1.42,1.42,0,0,0-1.33,1.33v6a1.3,1.3,0,0,0,1.33,1.29,2,2,0,0,0,.47,0l3.87-1.34Z"/><path class="cls-2" d="M436.41,215.71v-9.55l.69-11-6.71,20.51h-3.7V192.49h2.67v10.84l-.69,9.71,6.71-20.55h3.69v23.22Z"/><path class="cls-2" d="M463.88,206.42v5.29a4,4,0,0,1-4,4h-7.05V192.49h7.05a4,4,0,0,1,4,4v3.61a3.38,3.38,0,0,1-2.28,3.14A3.28,3.28,0,0,1,463.88,206.42ZM459.2,202a2,2,0,0,0,2-2v-3.4a1.34,1.34,0,0,0-1.34-1.33H455.5V202Zm-3.7,2.67V213h4.38a1.34,1.34,0,0,0,1.34-1.33v-5.07a2,2,0,0,0-2-2Z"/><path class="cls-2" d="M491.49,215.71v-8.9l.86-10.75-4.77,19.65h-3.32l-4.81-19.65.9,10.92v8.73h-2.71V192.49h3.61l4.65,19.22,4.69-19.22h3.61v23.22Z"/><path class="cls-2" d="M509.81,211.71a4,4,0,0,1-4,4h-3.1a4,4,0,0,1-4-4V196.53a4,4,0,0,1,4-4h3.1a4,4,0,0,1,4,4Zm-2.67-15.18a1.34,1.34,0,0,0-1.33-1.33h-3.1a1.34,1.34,0,0,0-1.33,1.33v15.18a1.34,1.34,0,0,0,1.33,1.33h3.1a1.34,1.34,0,0,0,1.33-1.33Z"/><path class="cls-2" d="M524,215.71v-9.55l.69-11L518,215.71h-3.7V192.49H517v10.84L516.3,213,523,192.49h3.69v23.22Z"/><path class="cls-2" d="M536.68,202h.56l3.18-9.46h2.88l-3.91,10.79,4.43,12.43H541l-3.7-11.09h-.64L533,215.71h-2.84l4.39-12.43-3.91-10.79h2.88Z"/><path class="cls-2" d="M561.75,195.2v20.51h-2.67V195.2h-3.65v-2.71h10v2.71Z"/><path class="cls-2" d="M568.89,222.38V192.49h2.23l.43,1,2.54-.95a4,4,0,0,1,1.38-.25,3.82,3.82,0,0,1,3.91,3.78v16.08a3.89,3.89,0,0,1-5.29,3.53l-2.54-.95v7.66Zm6.06-9.25a1.65,1.65,0,0,0,.43.09,1.22,1.22,0,0,0,1.33-1.17V196.28a1.21,1.21,0,0,0-1.33-1.3,1.27,1.27,0,0,0-.43.05l-3.4,1.33v15.52Z"/><path class="cls-2" d="M594.43,192.49l-4.13,29.89h-2.71l.95-6.67h-2.28l-3.44-23.22h2.71L588.58,213H589l2.75-20.55Z"/><path class="cls-2" d="M605.52,198.77v-2.24a1.34,1.34,0,0,0-1.33-1.33h-2.11a1.34,1.34,0,0,0-1.33,1.33v15.18a1.34,1.34,0,0,0,1.33,1.33h2.11a1.34,1.34,0,0,0,1.33-1.33v-3.65h2.67v3.65a4,4,0,0,1-4,4h-2.11a4,4,0,0,1-4-4V196.53a4,4,0,0,1,4-4h2.11a4,4,0,0,1,4,4v2.24Z"/><path class="cls-2" d="M621,202v-5.42a1.34,1.34,0,0,0-1.33-1.33h-2.58a1.23,1.23,0,0,0-.94.39,1.19,1.19,0,0,0-.39.94v2.24h-2.67v-2.28a4,4,0,0,1,4-4h2.58a4,4,0,0,1,4,4v19.22h-2.23l-.43-1-3.06,1a6.37,6.37,0,0,1-1.54.26,3.53,3.53,0,0,1-3.79-3.62V206a4,4,0,0,1,4-4Zm0,2.67H616.7a1.42,1.42,0,0,0-1.33,1.33v6a1.3,1.3,0,0,0,1.33,1.29,2,2,0,0,0,.47,0l3.87-1.34Z"/><path class="cls-2" d="M633.73,202h.56l3.18-9.46h2.88l-3.91,10.79,4.43,12.43H638l-3.7-11.09h-.64L630,215.71h-2.84l4.39-12.43-3.91-10.79h2.88Z"/><path class="cls-2" d="M647.14,212.66v3.05l-2.06,4.64h-1l1.12-4.64h-1.12v-3.05Z"/><path class="cls-2" d="M670.41,215.71v-9.55l.68-11-6.7,20.51h-3.7V192.49h2.66v10.84l-.68,9.71,6.7-20.55h3.7v23.22Z"/><path class="cls-2" d="M697.88,206.42v5.29a4,4,0,0,1-4,4h-7V192.49h7a4,4,0,0,1,4,4v3.61a3.38,3.38,0,0,1-2.28,3.14A3.28,3.28,0,0,1,697.88,206.42ZM693.2,202a2,2,0,0,0,2-2v-3.4a1.34,1.34,0,0,0-1.34-1.33H689.5V202Zm-3.7,2.67V213h4.38a1.34,1.34,0,0,0,1.34-1.33v-5.07a2,2,0,0,0-2-2Z"/><path class="cls-2" d="M322.12,267.31V246.8h-5.63v20.51h-2.67V244.09h11v23.22Z"/><path class="cls-2" d="M333.34,255.36c0,6.23-.26,12.17-5.12,12.17v-2.71c2.28,0,2.41-4.35,2.41-9.16v-7.57a4,4,0,0,1,4-4h6.11v23.22h-2.67V246.8h-3.44a1.34,1.34,0,0,0-1.33,1.33Z"/><path class="cls-2" d="M353.64,253.55v-5.42a1.34,1.34,0,0,0-1.34-1.33h-2.58a1.26,1.26,0,0,0-.94.39,1.19,1.19,0,0,0-.39.94v2.24h-2.67v-2.28a4,4,0,0,1,4-4h2.58a4,4,0,0,1,4,4v19.22h-2.23l-.43-1-3.05,1a6.53,6.53,0,0,1-1.55.26,3.53,3.53,0,0,1-3.79-3.62v-6.36a4.05,4.05,0,0,1,4-4Zm0,2.67h-4.35a1.43,1.43,0,0,0-1.33,1.33v6a1.31,1.31,0,0,0,1.33,1.29,2.16,2.16,0,0,0,.48,0l3.87-1.34Z"/><path class="cls-2" d="M366.11,246.8v20.51h-2.67V246.8h-3.66v-2.71h10v2.71Z"/><path class="cls-2" d="M373.24,267.31V244.09h2.67v6.79h3.74a4.25,4.25,0,0,1,4.26,4.26v7.91a4.27,4.27,0,0,1-4.26,4.26Zm8-12.64a1.11,1.11,0,0,0-1.12-1.12h-4.17v11.09h4.17a1.1,1.1,0,0,0,1.12-1.11Z"/><path class="cls-2" d="M391.09,256.22v7.09a1.33,1.33,0,0,0,1.33,1.33H395a1.34,1.34,0,0,0,1.34-1.33v-3.65H399v3.61a4.05,4.05,0,0,1-4,4h-2.62a4.09,4.09,0,0,1-4-4V248.09a4,4,0,0,1,4-4H395a4,4,0,0,1,4,4v8.13Zm0-2.67h5.29v-5.42A1.34,1.34,0,0,0,395,246.8h-2.62a1.34,1.34,0,0,0-1.33,1.33Z"/><path class="cls-2" d="M403.34,264.26h3.06v3.05h-3.06Z"/><path class="cls-2" d="M293.2,318.91h-2.84V304h-5.29v14.92h-2.83v-30.1h2.83v12.56h5.29V288.81h2.84Z"/><path class="cls-2" d="M309,314.91a4,4,0,0,1-4,4h-3.1a4,4,0,0,1-4-4V299.73a4,4,0,0,1,4-4H305a4,4,0,0,1,4,4Zm-2.66-15.18A1.34,1.34,0,0,0,305,298.4h-3.1a1.34,1.34,0,0,0-1.33,1.33v15.18a1.34,1.34,0,0,0,1.33,1.33H305a1.34,1.34,0,0,0,1.33-1.33Z"/><path class="cls-2" d="M321.92,318.91v-8.43H317.8a4.24,4.24,0,0,1-4.26-4.25V295.69h2.67v11a1.14,1.14,0,0,0,1.11,1.12h4.6V295.69h2.71v23.22Z"/><path class="cls-2" d="M331.81,307.82v7.09a1.34,1.34,0,0,0,1.34,1.33h2.62a1.34,1.34,0,0,0,1.33-1.33v-3.65h2.67v3.61a4.05,4.05,0,0,1-4,4h-2.62a4.08,4.08,0,0,1-4-4V299.69a4,4,0,0,1,4-4h2.62a4,4,0,0,1,4,4v8.13Zm1.59-19v3.05h-2.62v-3.05Zm-1.59,16.34h5.29v-5.42a1.34,1.34,0,0,0-1.33-1.33h-2.62a1.34,1.34,0,0,0-1.34,1.33Zm6.58-16.34v3.05h-2.58v-3.05Z"/><path class="cls-2" d="M355.33,309.62v5.29a4,4,0,0,1-4,4h-7.05V295.69h7.05a4,4,0,0,1,4,4v3.62a3.38,3.38,0,0,1-2.28,3.13A3.28,3.28,0,0,1,355.33,309.62Zm-4.68-4.47a2,2,0,0,0,2-2v-3.4a1.34,1.34,0,0,0-1.34-1.33H347v6.75Zm-3.7,2.67v8.42h4.38a1.34,1.34,0,0,0,1.34-1.33v-5.07a2,2,0,0,0-2-2Z"/><path class="cls-2" d="M362.52,305.15h2.19a1.82,1.82,0,0,0,1.76-1.85V300a4.23,4.23,0,0,1,4.17-4.26h.17v2.71h-.17a1.47,1.47,0,0,0-1.46,1.55v3.44a4.35,4.35,0,0,1-2.62,3.95l4.25,11.57H368l-4.13-11.09h-1.33v11.09h-2.67V295.69h2.67Z"/><path class="cls-2" d="M382.81,305.15v-5.42a1.34,1.34,0,0,0-1.33-1.33H378.9a1.27,1.27,0,0,0-.95.39,1.19,1.19,0,0,0-.39.94V302H374.9v-2.28a4,4,0,0,1,4-4h2.58a4,4,0,0,1,4,4v19.22h-2.24l-.43-1-3.05,1a6.36,6.36,0,0,1-1.55.26,3.52,3.52,0,0,1-3.78-3.62v-6.36a4,4,0,0,1,4-4Zm0,2.67h-4.34a1.43,1.43,0,0,0-1.34,1.33v6a1.31,1.31,0,0,0,1.34,1.29,2,2,0,0,0,.47,0l3.87-1.34Z"/><path class="cls-2" d="M389.82,296.16v-3.44a3.92,3.92,0,0,1,3.91-3.91h.86a3.89,3.89,0,0,1,3.91,3.91v3.44c0,4.39-3,9.08-3,13.55v3.44h-2.63v-3.44c0-4.69,3-9.46,3-13.55v-3.44a1.27,1.27,0,0,0-1.29-1.29h-.86a1.27,1.27,0,0,0-1.29,1.29v3.44Zm5.68,19.7v3.05h-2.63v-3.05Z"/><path class="cls-2" d="M412.78,301.54a2.56,2.56,0,1,1,5.12,0,2.56,2.56,0,1,1-5.12,0Zm0,15.18a2.56,2.56,0,1,1,5.12,0,2.56,2.56,0,1,1-5.12,0Z"/><path class="cls-2" d="M425.81,306.83h1.8c3.19,0,5.34-1.46,5.34-3.4s-1.68-3-4.05-3a10.08,10.08,0,0,0-5,1.46l-.94-2.32a13.18,13.18,0,0,1,6.92-1.89c3.18,0,7,1.42,7,5.46,0,2.58-2.36,4.26-4.69,4.73V308c3.1.25,5.68,2.15,5.68,5.2,0,4.51-4.6,6.19-9,6.19a14.17,14.17,0,0,1-6.75-1.68l1-2.53a12.12,12.12,0,0,0,5.51,1.41c3.14,0,5.11-1.5,5.11-3.56,0-2.8-2.92-3.57-6.06-3.57h-1.89Z"/><g id="Goose_and_hat" data-name="Goose and hat"><path id="BackHat" class="cls-3" d="M62.7,250l3.52-.9a.65.65,0,0,0,.49-.69l-.65-8.56a.75.75,0,0,0-.15-.37l-4.07-4.9a.68.68,0,0,0-.39-.23L54,233a.71.71,0,0,0-.49.1c-1,.67-4.91,3.33-5.05,3.47s-1,3.22-1.14,3.82a.76.76,0,0,0,0,.21l.14,2.53,1.26-2.56a.09.09,0,0,1,0-.06l1.7-2.77a.61.61,0,0,1,.29-.26l3.73-1.7a.64.64,0,0,1,.49,0l4.37,1.51a.68.68,0,0,1,.34.26L62,241.11"/><g id="goose"><path class="cls-4" d="M77.36,246.11s4.76-2.52,6.3-2.77c1-.16.23-1.45.07-1.48-1.13-.7-4.09-1-5.24.77l-3.3,1,.13,1.62Z"/><path class="cls-5" d="M76.28,245.21s4.84-2.59,5.8-2.59.86-.4.86-.4.1-.56-1.58-.36a20.82,20.82,0,0,0-3.27.69L75,243l-.26,1.71Z"/><path class="cls-4" d="M75.84,245.17s5.83-5.53,6.42-6.42a.29.29,0,0,0,0-.1c0-.38.76-1.15-2.66-.77s-5,1.54-6.09,1.54H69.38l-1.14.76,7.6,5"/><path class="cls-6" d="M54.37,336.55s3.7,7.49,3.57,9.77a24.37,24.37,0,0,1-.4,3.49s-.2,1.16.27,1.35,7.82,5.93,8.57,7.06a.7.7,0,0,0,.14.16c.32.23,1.25.74,1.56-.91a.61.61,0,0,0,0-.14l0-1.05a.56.56,0,0,1,.36-.56,1.69,1.69,0,0,1,.85,0,17.73,17.73,0,0,0,4.57-.17.58.58,0,0,0,.47-.72,8.89,8.89,0,0,1-.22-2.31.59.59,0,0,1,.46-.55l2-.44a1.88,1.88,0,0,0,1-.55c.25-.25.12-.37-.17-.58a3.51,3.51,0,0,0-1.41-.55c-1-.18-7.82-.71-8.23-.72h0l-6-.6a.59.59,0,0,1-.39-.2c-.67-.8-3.15-4.27-2-10.77,1.35-7.49-4.81-1-4.81-1"/><path class="cls-6" d="M69.24,327.45a.29.29,0,0,1,.31.35c-.26,1.09-.8,4.23,1.32,5.29,2.51,1.26,9.5-.26,9.81-.33l1.24-.13c.3,0,5.3-.72,2.07,1.95a.28.28,0,0,0,.11.49c1.73.46,6.42,1.92-.17,3.15a.29.29,0,0,0-.18.45c.75,1,2.38,3.7-2.77,2h0c-.57-.11-14-2.7-14.36-4.09a8,8,0,0,1,.16-3.25v0c0-.22.81-4.24.49-5C67,327.73,68.49,327.52,69.24,327.45Z"/><path class="cls-7" d="M15.61,300.4s2-2,7.3-.67a24.44,24.44,0,0,0,10.62,0S64.08,285,78.69,287.67c0,0,2.65-8.05-9.3-20.11s-8-20.1-8-20.1,1.33-5.36,8-8l8,6.7s-8,6.7-2.66,13.4,38.51,36.19,12,59l-19.92,13.4s-4,5.36-6.64,5.36H54.78a19.51,19.51,0,0,1-6.64-10.72,64.77,64.77,0,0,0-14.61-10.72C25.57,311.79,15.61,303.08,15.61,300.4Z"/><circle cx="66.03" cy="245.17" r="1.2"/></g><g id="FrontHat"><path class="cls-8" d="M66.79,243.09l-2,.73-1,2.08,1,2.41,5.7-.5,2.84,2.38-8,2.57-2.11-2.31-1.58,1.78s-.37.46-.3,3.14a11.8,11.8,0,0,1,1.65-12l.53.12a15.14,15.14,0,0,1,2.4-2.24l.51-.35S67,241.45,66.79,243.09Z"/><path class="cls-9" d="M61,248.9l3.53-5,0-.56a.67.67,0,0,0-.15-.37l-4.07-4.9a.68.68,0,0,0-.39-.23l-7.44-1.36a.71.71,0,0,0-.49.1C51,237.3,47,240,46.9,240.1s-1,3.22-1.14,3.82a.5.5,0,0,0,0,.21l.13,2.53,1.26-2.56,0-.06,1.7-2.78a.64.64,0,0,1,.29-.25l3.73-1.7a.69.69,0,0,1,.49,0l4.37,1.52a.68.68,0,0,1,.34.26l2.36,3.57Z"/></g></g><g id="text_g" data-name="text g"><g id="text_g-2" data-name="text g"><path class="cls-10" d="M208,249c0,13.81-25.73,25-57.48,25-24.53,0-45.47-6.68-53.72-16.09A13.5,13.5,0,0,1,93,249c0-13.81,25.73-25,57.48-25S208,235.19,208,249Z"/><polygon class="cls-10" points="84.65 239.84 104.42 243.46 100.13 254.6 84.65 239.84"/></g><path d="M116.42,256.91h-1.68v-8.67h-3.15v8.67h-1.68v-17.5h1.68v7.3h3.15v-7.3h1.68Z"/><path d="M125.83,254.58a2.35,2.35,0,0,1-2.38,2.33h-1.84a2.35,2.35,0,0,1-2.38-2.33v-8.82a2.37,2.37,0,0,1,2.38-2.35h1.84a2.37,2.37,0,0,1,2.38,2.35Zm-1.59-8.82a.78.78,0,0,0-.79-.77h-1.84a.79.79,0,0,0-.79.77v8.82a.79.79,0,0,0,.79.78h1.84a.78.78,0,0,0,.79-.78Z"/><path d="M129.84,243.41l.26.58,1.48-.58a3.25,3.25,0,0,1,.82-.12,2.36,2.36,0,0,1,2.35,2.32v11.3h-1.59v-11.4a.69.69,0,0,0-.76-.67,1.06,1.06,0,0,0-.31,0l-2,.77v11.25h-1.59v-13.5Z"/><path d="M139,239.41v9.5h.71l2.56-5.5H144l-2.89,6.3,2.86,7.2h-1.68l-2.61-6.45H139v6.45h-1.59v-17.5Z"/><path d="M146,248.86h5v1.35h-5Z"/><path d="M160.28,256.91h-1.69v-8.67h-3.14v8.67h-1.69v-17.5h1.69v7.3h3.14v-7.3h1.69Z"/><path d="M169.69,254.58a2.35,2.35,0,0,1-2.38,2.33h-1.84a2.35,2.35,0,0,1-2.38-2.33v-8.82a2.37,2.37,0,0,1,2.38-2.35h1.84a2.37,2.37,0,0,1,2.38,2.35Zm-1.59-8.82a.79.79,0,0,0-.79-.77h-1.84a.78.78,0,0,0-.79.77v8.82a.78.78,0,0,0,.79.78h1.84a.79.79,0,0,0,.79-.78Z"/><path d="M173.7,243.41l.25.58,1.49-.58a3.24,3.24,0,0,1,.81-.12,2.35,2.35,0,0,1,2.35,2.32v11.3H177v-11.4a.7.7,0,0,0-.77-.67,1,1,0,0,0-.3,0l-2,.77v11.25h-1.58v-13.5Z"/><path d="M182.87,239.41v9.5h.72l2.55-5.5h1.72l-2.89,6.3,2.86,7.2h-1.69l-2.6-6.45h-.67v6.45h-1.58v-17.5Z"/><path d="M191.46,239.41v14.15H189.9V239.41Zm0,15.72v1.78H189.9v-1.78Z"/></g><g id="_3" data-name="3"><path class="cls-11" d="M586,77.4a11.18,11.18,0,0,0,4.53-2.62,10,10,0,0,0,3.68-8.48q-.36-4.41-4.22-8.7a14.23,14.23,0,0,0-5.68-3.25q-4.56-1.64-6.29-.09a3.64,3.64,0,0,0-1.21,2.46,3.2,3.2,0,0,0,.82,2.58c.39.43,1.51.87,3.37,1.32a7.86,7.86,0,0,1,4.12,2.15q4,4.49.94,7.13a3.25,3.25,0,0,1-2.24.82,6.16,6.16,0,0,1-2.85-.93l-4.66-3.17c-1.81-1-3.27-1-4.4,0-1.47,1.33-1.47,3,0,5q5,6.94,0,11.49a4.82,4.82,0,0,1-4,1.15,6.28,6.28,0,0,1-4-2.11,6.89,6.89,0,0,1-2.1-4.38,28,28,0,0,1,.64-3.12,3,3,0,0,0-.7-2.82,3.65,3.65,0,0,0-2.33-1.2,3.27,3.27,0,0,0-2.65.85,4,4,0,0,0-.78,1,10.54,10.54,0,0,0-1,7.75A15.21,15.21,0,0,0,558.62,87a12.68,12.68,0,0,0,9.13,4.35,12.91,12.91,0,0,0,9.59-3.46q5.14-4.62,4-10.62A8,8,0,0,0,586,77.4Z"/><path class="cls-11" d="M70.35,60.71A11.07,11.07,0,0,0,66.64,57a10,10,0,0,0-9.15-1.34Q53.33,57.18,50.2,62a14,14,0,0,0-1.65,6.33q-.4,4.83,1.55,6.09a3.68,3.68,0,0,0,2.69.53,3.26,3.26,0,0,0,2.28-1.47c.31-.48.44-1.68.39-3.59a7.8,7.8,0,0,1,1-4.54q3.27-5.07,6.63-2.77a3.21,3.21,0,0,1,1.38,1.94,6.28,6.28,0,0,1-.15,3l-1.85,5.32q-.7,3,1.2,4.23,2.51,1.62,4.85-1.31,5.4-6.67,11.1-3a4.76,4.76,0,0,1,2.16,3.56,6.3,6.3,0,0,1-1,4.4,7,7,0,0,1-3.67,3.17,28.52,28.52,0,0,1-3.18.19,3,3,0,0,0-2.54,1.42,3.61,3.61,0,0,0-.55,2.55,3.21,3.21,0,0,0,1.51,2.34,3.58,3.58,0,0,0,1.14.5,10.51,10.51,0,0,0,7.73-1.09,15.27,15.27,0,0,0,5.5-5.24,12.67,12.67,0,0,0,1.82-10,12.92,12.92,0,0,0-5.85-8.36q-5.81-3.75-11.29-1A7.86,7.86,0,0,0,70.35,60.71Z"/><path class="cls-11" d="M176.21,66.26a11.14,11.14,0,0,0,4.8-2.09,10,10,0,0,0,4.62-8A14.92,14.92,0,0,0,182.41,47a14,14,0,0,0-5.27-3.87q-4.35-2.14-6.24-.8a3.67,3.67,0,0,0-1.48,2.3,3.23,3.23,0,0,0,.52,2.66c.34.47,1.4,1,3.2,1.69a7.88,7.88,0,0,1,3.85,2.6q3.51,4.92.13,7.19a3.2,3.2,0,0,1-2.32.56,6.16,6.16,0,0,1-2.73-1.24l-4.26-3.68q-2.53-1.76-4.38-.44-2.42,1.73-.56,5,4.22,7.47-1.32,11.42a4.8,4.8,0,0,1-4.1.69,6.34,6.34,0,0,1-3.73-2.55,7,7,0,0,1-1.6-4.58,28.74,28.74,0,0,1,1-3,3,3,0,0,0-.38-2.88,3.66,3.66,0,0,0-2.17-1.46,3.23,3.23,0,0,0-2.74.55A3.5,3.5,0,0,0,147,58a10.5,10.5,0,0,0-1.83,7.59,15.17,15.17,0,0,0,2.84,7A12.66,12.66,0,0,0,156.54,78a12.91,12.91,0,0,0,9.92-2.35q5.64-4,5.14-10.11A8,8,0,0,0,176.21,66.26Z"/><path class="cls-11" d="M253.94,250.84a11.25,11.25,0,0,0-5.15-.94,10,10,0,0,0-8.3,4.08q-2.58,3.59-2.42,9.36a14.14,14.14,0,0,0,2.23,6.15q2.4,4.22,4.73,4.15a3.69,3.69,0,0,0,2.51-1.09,3.19,3.19,0,0,0,1.05-2.5c0-.58-.59-1.64-1.72-3.19a7.91,7.91,0,0,1-1.74-4.3c-.11-4,1.19-6,3.9-6a3.23,3.23,0,0,1,2.24.83,6.06,6.06,0,0,1,1.57,2.55l1.49,5.43c.75,1.92,1.88,2.85,3.39,2.81,2-.06,3.06-1.33,3.25-3.84q.66-8.53,7.46-8.74a4.77,4.77,0,0,1,3.79,1.72,6.35,6.35,0,0,1,1.68,4.19,7,7,0,0,1-1.24,4.7,30,30,0,0,1-2.51,1.95,3,3,0,0,0-1.3,2.61,3.65,3.65,0,0,0,1,2.42,3.25,3.25,0,0,0,2.57,1.07,3.54,3.54,0,0,0,1.23-.24,10.47,10.47,0,0,0,5.75-5.28,15.37,15.37,0,0,0,1.57-7.43,12.72,12.72,0,0,0-4.14-9.23,12.93,12.93,0,0,0-9.56-3.57q-6.9.19-9.9,5.52A7.94,7.94,0,0,0,253.94,250.84Z"/><path class="cls-11" d="M216.48,310a11.26,11.26,0,0,0-4.59,2.52,10.7,10.7,0,0,0-4.18,8.11,11.08,11.08,0,0,0,.71,4.1,16.32,16.32,0,0,0,2.27,4.1,12.55,12.55,0,0,0,4.88,3.31c2.7,1.25,4.71,1.5,6,.66a3.8,3.8,0,0,0,1.6-2.19,2.9,2.9,0,0,0-.37-2.54c-.29-.46-1.32-1-3.06-1.56a7.27,7.27,0,0,1-3.68-2.32c-2.22-3-2.31-5.23-.15-6.87a3.29,3.29,0,0,1,2.26-.71,5.51,5.51,0,0,1,2.71,1.06c1.44,1.1,2.83,2.27,4.24,3.45,1.64,1.14,3.1,1.29,4.34.42,1.62-1.12,1.84-2.8.57-5-2.87-5-2.71-8.79.83-11.63a4.6,4.6,0,0,1,4.13-.81,6.93,6.93,0,0,1,4,2.67,7.56,7.56,0,0,1,1.82,4.85,23.74,23.74,0,0,1-.95,3.11,3.24,3.24,0,0,0,.39,3,4.15,4.15,0,0,0,2.2,1.63,3.36,3.36,0,0,0,3.7-1.22,10.29,10.29,0,0,0,1.82-7.91,17.08,17.08,0,0,0-3.31-7.69,15.14,15.14,0,0,0-4.21-3.89,13.18,13.18,0,0,0-5.21-1.82,12,12,0,0,0-9.87,2.95,12.76,12.76,0,0,0-3.66,4.9,10.76,10.76,0,0,0-.63,5.63A7.58,7.58,0,0,0,216.48,310Z"/><path class="cls-11" d="M653.93,316.07a11,11,0,0,0,5.19-.71,9.66,9.66,0,0,0,6.5-6.68c.8-2.94.45-6.34-1.09-10.13a15,15,0,0,0-4.43-5.27c-2.58-2.17-4.61-2.9-6-2.28a3.64,3.64,0,0,0-1.89,2,3.41,3.41,0,0,0,0,2.78,8.28,8.28,0,0,0,2.82,2.44,8.43,8.43,0,0,1,3.22,3.56q2.32,5.85-1.53,7.21a3.24,3.24,0,0,1-2.39-.05,6.31,6.31,0,0,1-2.37-1.92l-3.34-4.65c-1.38-1.56-2.79-2-4.18-1.43-1.83.78-2.35,2.36-1.65,4.75a10.61,10.61,0,0,1,.16,6.78,6.8,6.8,0,0,1-4.21,3.88,4.87,4.87,0,0,1-4.12-.3,6,6,0,0,1-3-3.21,6.53,6.53,0,0,1-.44-4.66,28.65,28.65,0,0,1,1.65-2.67,2.9,2.9,0,0,0,.27-2.84,3.43,3.43,0,0,0-1.81-1.8,3.27,3.27,0,0,0-2.77,0,3.82,3.82,0,0,0-1,.68A10.75,10.75,0,0,0,624,308.4a14.3,14.3,0,0,0,1,7.09,12,12,0,0,0,6.81,6.82,13.51,13.51,0,0,0,10.14.22c4.32-1.56,6.93-4.33,7.63-8.36A8.18,8.18,0,0,0,653.93,316.07Z"/><path class="cls-11" d="M500.61,259.38a11.17,11.17,0,0,0,.61-5.2,10,10,0,0,0-4.6-8q-3.75-2.34-9.5-1.81a14.2,14.2,0,0,0-6,2.61c-2.7,1.78-4,3.45-3.84,5a3.66,3.66,0,0,0,1.25,2.43,3.21,3.21,0,0,0,2.56.89c.57-.05,1.6-.69,3.07-1.91a7.82,7.82,0,0,1,4.19-2q6-.56,6.27,3.51a3.17,3.17,0,0,1-.68,2.28,6.13,6.13,0,0,1-2.45,1.74l-5.32,1.83c-1.87.87-2.73,2.05-2.59,3.56.18,2,1.53,3,4,3q8.58.12,9.2,6.89a4.72,4.72,0,0,1-1.47,3.89,6.34,6.34,0,0,1-4.07,1.94,6.94,6.94,0,0,1-4.77-.93,30.65,30.65,0,0,1-2.11-2.39,3,3,0,0,0-2.68-1.12,3.59,3.59,0,0,0-2.35,1.15,3.25,3.25,0,0,0-.91,2.63,3.66,3.66,0,0,0,.32,1.21,10.49,10.49,0,0,0,5.63,5.4,15.28,15.28,0,0,0,7.52,1.09,12.61,12.61,0,0,0,8.94-4.72,12.89,12.89,0,0,0,3-9.76q-.63-6.89-6.14-9.53A8,8,0,0,0,500.61,259.38Z"/><path class="cls-11" d="M565.59,321.53a11.08,11.08,0,0,0,5.22.39,10,10,0,0,0,7.83-4.93,14.92,14.92,0,0,0,1.41-9.56,14,14,0,0,0-2.86-5.88c-1.89-2.63-3.61-3.83-5.14-3.63a3.7,3.7,0,0,0-2.38,1.35,3.21,3.21,0,0,0-.78,2.6c.07.57.76,1.56,2,3a7.94,7.94,0,0,1,2.19,4.1q.81,6-3.24,6.42a3.21,3.21,0,0,1-2.31-.59,6.11,6.11,0,0,1-1.84-2.37c-.68-1.74-1.37-3.49-2.05-5.25q-1.42-2.73-3.67-2.43c-2,.26-2.91,1.65-2.83,4.15q.26,8.58-6.49,9.48a4.75,4.75,0,0,1-4-1.3,6.33,6.33,0,0,1-2.11-4,6.89,6.89,0,0,1,.73-4.79,27.27,27.27,0,0,1,2.29-2.21,3,3,0,0,0,1-2.73,3.59,3.59,0,0,0-1.24-2.3,3.26,3.26,0,0,0-2.67-.8,3.6,3.6,0,0,0-1.19.37,10.5,10.5,0,0,0-5.17,5.85,15.25,15.25,0,0,0-.77,7.56,12.66,12.66,0,0,0,5.09,8.74,12.94,12.94,0,0,0,9.87,2.55q6.85-.92,9.27-6.54A7.9,7.9,0,0,0,565.59,321.53Z"/><path class="cls-11" d="M672.55,77.5A11.1,11.1,0,0,0,668,74.87a10,10,0,0,0-9.19,1,14.91,14.91,0,0,0-5.45,8,14.12,14.12,0,0,0,0,6.54c.56,3.18,1.58,5,3.05,5.5a3.66,3.66,0,0,0,2.73-.17,3.21,3.21,0,0,0,1.83-2,7.76,7.76,0,0,0-.53-3.58,8,8,0,0,1-.18-4.65q1.89-5.73,5.72-4.36a3.23,3.23,0,0,1,1.82,1.54,6.06,6.06,0,0,1,.62,2.94c-.15,1.86-.3,3.74-.44,5.61q.07,3.09,2.23,3.79c1.88.63,3.34-.21,4.36-2.5q3.52-7.81,10-5.69a4.77,4.77,0,0,1,3,2.9,6.37,6.37,0,0,1,.15,4.51,6.9,6.9,0,0,1-2.76,4,26.15,26.15,0,0,1-3,1,3,3,0,0,0-2.11,2,3.68,3.68,0,0,0,.12,2.61,3.25,3.25,0,0,0,2.06,1.89,3.76,3.76,0,0,0,1.23.19,10.49,10.49,0,0,0,7.2-3,15.33,15.33,0,0,0,4-6.45,12.71,12.71,0,0,0-.76-10.09,13,13,0,0,0-7.78-6.61q-6.55-2.16-11.18,1.84A8,8,0,0,0,672.55,77.5Z"/><path class="cls-11" d="M511,23.69a11,11,0,0,0-1.53,5,9.94,9.94,0,0,0,3.08,8.72q3.27,3,9,3.49a14.09,14.09,0,0,0,6.37-1.49q4.45-1.9,4.67-4.22a3.69,3.69,0,0,0-.79-2.62,3.21,3.21,0,0,0-2.36-1.33c-.58,0-1.7.39-3.37,1.33a7.84,7.84,0,0,1-4.48,1.23q-6-.52-5.55-4.58a3.27,3.27,0,0,1,1.09-2.12,6.05,6.05,0,0,1,2.72-1.27l5.57-.84c2-.52,3-1.53,3.18-3,.18-2-1-3.2-3.43-3.68q-8.41-1.65-7.81-8.42a4.78,4.78,0,0,1,2.14-3.57,6.26,6.26,0,0,1,4.36-1.17,6.93,6.93,0,0,1,4.52,1.77,26.9,26.9,0,0,1,1.65,2.72,3,3,0,0,0,2.44,1.59,3.67,3.67,0,0,0,2.52-.71,3.23,3.23,0,0,0,1.36-2.43,3.64,3.64,0,0,0-.09-1.24A10.51,10.51,0,0,0,531.7.48a15.24,15.24,0,0,0-7.19-2.42,12.68,12.68,0,0,0-9.65,3,12.91,12.91,0,0,0-4.67,9.07q-.6,6.89,4.34,10.47A8,8,0,0,0,511,23.69Z"/><path class="cls-11" d="M110.34-3.11a11.43,11.43,0,0,0,3.1-4.17,12.49,12.49,0,0,0,1.07-8.89,8.94,8.94,0,0,0-1.58-3.23,9.2,9.2,0,0,0-1.2-1.39c-.45-.43-1-.82-1.51-1.24a4.6,4.6,0,0,0-1.89-.75,14.79,14.79,0,0,0-2.91-.4,11.82,11.82,0,0,0-3.32.1A4.16,4.16,0,0,0,99.89-22a3.94,3.94,0,0,0-1.13,2.4,2.56,2.56,0,0,0,.77,2.24c.37.32,1.45.48,3.13.47a6.29,6.29,0,0,1,3.81.84,9.34,9.34,0,0,1,1.62,1.4,4,4,0,0,1,.86,1.48,3.68,3.68,0,0,1-.54,3.21,3.44,3.44,0,0,1-1.81,1.5,4.8,4.8,0,0,1-2.77,0c-1.66-.49-3.24-1.16-4.89-1.81a5,5,0,0,0-2.42-.23,3,3,0,0,0-1.79,1.07A2.93,2.93,0,0,0,94-7a4.4,4.4,0,0,0,1.6,2.56A21.79,21.79,0,0,1,98.2-1.55a8.83,8.83,0,0,1,1.47,2.83,6.51,6.51,0,0,1,.27,2.83,7.67,7.67,0,0,1-1,2.91,4.46,4.46,0,0,1-3.73,2.15A8,8,0,0,1,90.13,7.7c-2-1.46-3.23-2.89-3.59-4.41a22.88,22.88,0,0,1-.06-3.37A3.83,3.83,0,0,0,85.18-3a4.45,4.45,0,0,0-2.66-1.19,3.1,3.1,0,0,0-2.72.87,3.1,3.1,0,0,0-.69,1,8.66,8.66,0,0,0-.66,4.07A12.55,12.55,0,0,0,79.71,6.3a19.9,19.9,0,0,0,2.6,3.85,24,24,0,0,0,3.76,3.34,17.77,17.77,0,0,0,6,2.74,14.12,14.12,0,0,0,6.1.1,11.74,11.74,0,0,0,5-2.26,11.57,11.57,0,0,0,3.19-4.21,14.59,14.59,0,0,0,1-3.07,12.13,12.13,0,0,0,.24-2.92,10.87,10.87,0,0,0-.47-2.79,12.78,12.78,0,0,0-1.16-2.64A7.22,7.22,0,0,0,110.34-3.11Z"/><path class="cls-11" d="M264.45-21.65a11.22,11.22,0,0,0-5.07-1.3,10,10,0,0,0-8.57,3.48q-2.82,3.39-3.07,9.17A14,14,0,0,0,249.52-4Q251.62.37,254,.46a3.67,3.67,0,0,0,2.58-.91,3.2,3.2,0,0,0,1.22-2.41c0-.58-.47-1.68-1.48-3.3a7.84,7.84,0,0,1-1.44-4.42q.25-6,4.32-5.75a3.2,3.2,0,0,1,2.17,1,6,6,0,0,1,1.39,2.66q.56,2.76,1.1,5.53.92,2.94,3.18,3c2,.08,3.16-1.12,3.52-3.6q1.26-8.48,8.06-8.19a4.83,4.83,0,0,1,3.66,2,6.34,6.34,0,0,1,1.37,4.3A7,7,0,0,1,282-5a29.77,29.77,0,0,1-2.65,1.77,3,3,0,0,0-1.47,2.51,3.6,3.6,0,0,0,.82,2.48A3.28,3.28,0,0,0,281.23,3a3.87,3.87,0,0,0,1.24-.16A10.51,10.51,0,0,0,288.58-2a15.27,15.27,0,0,0,2.09-7.3,12.66,12.66,0,0,0-3.47-9.5,13,13,0,0,0-9.28-4.25q-6.9-.3-10.27,4.81A7.89,7.89,0,0,0,264.45-21.65Z"/><path class="cls-11" d="M368.73-6.12a11.16,11.16,0,0,0-5.12-1.06,10,10,0,0,0-8.4,3.88Q352.56.22,352.57,6a14.26,14.26,0,0,0,2.07,6.2c1.54,2.85,3.09,4.27,4.63,4.26a3.66,3.66,0,0,0,2.54-1A3.23,3.23,0,0,0,362.92,13c0-.58-.55-1.65-1.64-3.23a7.88,7.88,0,0,1-1.64-4.34q0-6,4.05-5.95a3.23,3.23,0,0,1,2.21.88,6.11,6.11,0,0,1,1.52,2.59q.68,2.73,1.36,5.47c.69,1.93,1.8,2.9,3.31,2.89,2,0,3.1-1.26,3.35-3.76Q376.29-1,383.1-1a4.74,4.74,0,0,1,3.75,1.8A6.32,6.32,0,0,1,388.43,5a7,7,0,0,1-1.35,4.66,29.26,29.26,0,0,1-2.56,1.89,3,3,0,0,0-1.36,2.58,3.66,3.66,0,0,0,.94,2.44,3.24,3.24,0,0,0,2.55,1.13,3.76,3.76,0,0,0,1.22-.2,10.52,10.52,0,0,0,5.88-5.14A15.25,15.25,0,0,0,395.5,5a12.66,12.66,0,0,0-3.91-9.33,13,13,0,0,0-9.47-3.81q-6.9,0-10,5.29A7.94,7.94,0,0,0,368.73-6.12Z"/><path class="cls-11" d="M429.19,349.07a11.2,11.2,0,0,0,1.08-5.13,10,10,0,0,0-3.84-8.41q-3.51-2.67-9.29-2.67a14.13,14.13,0,0,0-6.21,2c-2.86,1.53-4.28,3.07-4.28,4.62a3.67,3.67,0,0,0,1,2.54,3.2,3.2,0,0,0,2.47,1.12c.57,0,1.65-.54,3.23-1.63a7.89,7.89,0,0,1,4.35-1.62q6,0,5.93,4.07a3.19,3.19,0,0,1-.89,2.21,6,6,0,0,1-2.59,1.5l-5.48,1.34c-1.93.69-2.9,1.8-2.9,3.31q0,3,3.74,3.36,8.54.9,8.53,7.7a4.78,4.78,0,0,1-1.82,3.74,6.32,6.32,0,0,1-4.24,1.56,7,7,0,0,1-4.66-1.37,29.7,29.7,0,0,1-1.88-2.57,3,3,0,0,0-2.57-1.36,3.6,3.6,0,0,0-2.44.93,3.22,3.22,0,0,0-1.15,2.54,3.76,3.76,0,0,0,.2,1.22,10.52,10.52,0,0,0,5.12,5.9,15.2,15.2,0,0,0,7.38,1.78,12.63,12.63,0,0,0,9.34-3.88,12.88,12.88,0,0,0,3.85-9.45c0-4.6-1.75-8-5.25-10A7.92,7.92,0,0,0,429.19,349.07Z"/><path class="cls-11" d="M150.5,376.41a11.48,11.48,0,0,0,3.95-3.39,14.7,14.7,0,0,0,2.4-4.28,10.94,10.94,0,0,0,.61-4.14,9,9,0,0,0-.83-3.5,8.42,8.42,0,0,0-.86-1.62c-.35-.52-.78-1-1.2-1.55a4.74,4.74,0,0,0-1.67-1.15,19.15,19.15,0,0,0-2.75-1,13.57,13.57,0,0,0-3.27-.63,4.15,4.15,0,0,0-2.39.59,4,4,0,0,0-1.65,2.1,2.39,2.39,0,0,0,.27,2.35c.29.39,1.3.8,2.93,1.17a6.05,6.05,0,0,1,3.54,1.66,10.14,10.14,0,0,1,1.27,1.71,4.1,4.1,0,0,1,.51,1.64,3.38,3.38,0,0,1-.22,1.54,4.93,4.93,0,0,1-1,1.48,3.5,3.5,0,0,1-2.11,1.07,5,5,0,0,1-2.69-.62C143.8,369,142.41,368,141,367a5.52,5.52,0,0,0-2.32-.76,3,3,0,0,0-2,.65,2.92,2.92,0,0,0-1.28,2.16,3.73,3.73,0,0,0,.18,1.36,7.35,7.35,0,0,0,.81,1.48,23,23,0,0,1,1.93,3.41,9.16,9.16,0,0,1,.81,3.07,6.85,6.85,0,0,1-.37,2.83,7.58,7.58,0,0,1-1.65,2.61,4,4,0,0,1-1.77,1.12A5,5,0,0,1,133,385a8,8,0,0,1-4.6-2.54c-1.6-1.86-2.49-3.54-2.53-5.09a22.94,22.94,0,0,1,.7-3.31,3.75,3.75,0,0,0-.62-3.15,4.44,4.44,0,0,0-2.32-1.77,3.21,3.21,0,0,0-2.87.27,3,3,0,0,0-.9.86,9,9,0,0,0-1.53,3.81,11.7,11.7,0,0,0,.24,4.7,18.79,18.79,0,0,0,1.66,4.34,25.18,25.18,0,0,0,2.93,4.09,18.46,18.46,0,0,0,5.25,4,14.89,14.89,0,0,0,5.92,1.44,11,11,0,0,0,9.45-4.48,12.88,12.88,0,0,0,2.59-5.58,10.64,10.64,0,0,0,.15-2.81A15.63,15.63,0,0,0,146,377,6.89,6.89,0,0,0,150.5,376.41Z"/></g></g></svg>