<svg id="Layer_1" data-name="Layer 1" xmlns="http://www.w3.org/2000/svg" viewBox="0 0 720 360"><defs><style>.cls-1{fill:#fdfff4;}.cls-2{fill:#9af7ff;}.cls-3{fill:#ff5d61;}.cls-4{fill:#003552;}</style></defs><title>FrontOfCard copy</title><rect class="cls-1" width="720" height="360"/><polygon class="cls-2" points="0 0 0 115.13 448.67 115.13 316.07 219.4 720 219.4 720 0 0 0"/><polygon class="cls-3" points="375 142.19 0 142.19 0 360 720 360 720 244.88 242 244.88 375 142.19"/><path class="cls-4" d="M199.83,181.37l-10.31,1.8-.94,54.51-5.72,1,1-60.19,21.74-3.79-1,60.19-5.72,1Z"/><path class="cls-4" d="M215.6,173l12.65-2.2c4.42-.77,8.08,2.2,8,6.67l-.33,19.6a9.6,9.6,0,0,1-7.77,9.33l-7.44,1.29-.43,24.51-5.71,1Zm5.2,29.36,6.58-1.15a3.68,3.68,0,0,0,2.83-3.57l.33-19.18a2,2,0,0,0-2.39-2l-6.93,1.2Z"/><path class="cls-4" d="M265.47,175.53l-12.79,51-7.8,1.36,1-60.19,5.71-1-.47,27.34-2,22.55.6.07,12.89-51.88,7.71-1.34-1,60.19-5.72,1,.47-27.35,2-21.69Z"/><path class="cls-4" d="M279.27,221.91l1-60.19,17.42-3-.1,5.68-11.7,2L285,220.91Z"/><path class="cls-4" d="M320.14,160.45l-9,1.57-.52,30.18c-.18,10.49-.44,25.28-10.92,27.1l.1-5.68c4.76-.82,5-14,5.06-18.28l.66-38L326,153.78l-1,60.19-5.72,1Z"/><path class="cls-4" d="M333.15,212.54l9.26-61.62,10.31-1.8,7.19,58.76-5.72,1-2.29-17.26-10.13,1.76L339,211.53Zm14.1-56.89L342.46,188l8.92-1.55-3.7-30.91Z"/><path class="cls-4" d="M374,199.78l10.4-1.81.93-54.51,5.72-1L390.06,197l10.4-1.81.94-54.51,5.71-1-1,60.19-37.94,6.6,1-60.19,5.72-1Z"/><path class="cls-4" d="M422.69,142.61,422.36,162l9.44-1.64-.09,5.25-9.44,1.64-.42,24.16,10.74-1.87-.09,5.68L416,198.12l1-60.19,16.55-2.88-.1,5.68Z"/><path class="cls-4" d="M463.76,189.82l-5.71,1,.51-29.84-10.66,1.85-.51,29.84-5.72,1,1-60.19,5.72-1L448,157.59l10.66-1.86.43-25.1,5.72-1Z"/><path class="cls-4" d="M494.31,135.73l-12.79,51-7.8,1.36,1-60.19,5.71-1L480,154.25l-2,22.55.6.07L491.48,125l7.7-1.34-1,60.19-5.72,1,.47-27.34,2-21.7Z"/><path class="cls-4" d="M514.76,126.6,514.43,146l9.44-1.64-.09,5.24-9.44,1.65-.42,24.16,10.75-1.87-.1,5.68-16.46,2.86,1-60.19L525.69,119l-.1,5.67Z"/></svg>